<svg width="480" height="120" viewBox="0 0 480 120" xmlns="http://www.w3.org/2000/svg">
  <!-- LoomAI Horizontal Lockup — Transparent BG — use on dark surfaces -->

  <!-- Woven grid mark -->
  <rect x="16" y="16" width="88" height="88" rx="14" fill="#1c2e4a"/>

    <!-- V2C Woven Grid -->
    <rect x="45.5" y="25.7" width="29.1" height="18.3" rx="4.0" fill="#27aae1"/>
    <rect x="25.7" y="50.9" width="68.6" height="18.3" rx="4.0" fill="#27aae1"/>
    <rect x="45.5" y="76.1" width="29.1" height="18.3" rx="4.0" fill="#27aae1"/>
    <rect x="25.7" y="25.7" width="18.3" height="23.7" rx="4.0" fill="#4cc4f0"/>
    <rect x="25.7" y="70.7" width="18.3" height="23.6" rx="4.0" fill="#4cc4f0"/>
    <rect x="50.9" y="45.5" width="18.3" height="29.1" rx="4.0" fill="#4cc4f0"/>
    <rect x="76.1" y="25.7" width="18.3" height="23.7" rx="4.0" fill="#4cc4f0"/>
    <rect x="76.1" y="70.7" width="18.3" height="23.6" rx="4.0" fill="#4cc4f0"/>
    <circle cx="60.0" cy="60.0" r="4.4" fill="#e8f0f8"/>

  <!-- Divider -->
  <line x1="118" y1="20" x2="118" y2="100" stroke="#27aae1" stroke-width="1.5" opacity="0.3"/>

  <!-- Wordmark -->
  <text x="134" y="72" font-size="46" font-weight="700" letter-spacing="-1.5" fill="#ffffff" font-family="'Inter','Helvetica Neue',Arial,sans-serif">Loom<tspan fill="#27aae1">AI</tspan></text>

  <!-- Tagline -->
  <text x="136" y="91" font-size="9.5" letter-spacing="3" fill="#7aaac8" font-family="'Inter','Helvetica Neue',Arial,sans-serif">WEAVE · BUILD · DISCOVER</text>

  <!-- Sub-tagline -->
  <line x1="136" y1="98" x2="366" y2="98" stroke="#ffffff" stroke-width="0.5" opacity="0.1"/>
  <text x="136" y="111" font-size="9" letter-spacing="1.2" fill="#7aaac8" font-family="'Inter','Helvetica Neue',Arial,sans-serif" opacity="0.7">FABRIC AI ASSISTANT</text>
</svg>
