<svg width="480" height="120" viewBox="0 0 480 120" xmlns="http://www.w3.org/2000/svg">
  <!-- LoomAI Horizontal — Greyscale on white -->
  <rect width="480" height="120" fill="#ffffff"/>
  <rect x="16" y="16" width="88" height="88" rx="14" fill="#3a3a3a"/>
    <rect x="45.5" y="25.7" width="29.1" height="18.3" rx="4.0" fill="#888888"/>
    <rect x="45.5" y="76.1" width="29.1" height="18.3" rx="4.0" fill="#888888"/>
    <rect x="25.7" y="50.9" width="68.6" height="18.3" rx="4.0" fill="#888888"/>
    <rect x="25.7" y="25.7" width="18.3" height="23.7" rx="4.0" fill="#aaaaaa"/>
    <rect x="25.7" y="70.7" width="18.3" height="23.6" rx="4.0" fill="#aaaaaa"/>
    <rect x="76.1" y="25.7" width="18.3" height="23.7" rx="4.0" fill="#aaaaaa"/>
    <rect x="76.1" y="70.7" width="18.3" height="23.6" rx="4.0" fill="#aaaaaa"/>
    <rect x="50.9" y="45.5" width="18.3" height="29.1" rx="4.0" fill="#aaaaaa"/>
    <circle cx="60.0" cy="60.0" r="4.4" fill="#e0e0e0"/>

  <line x1="118" y1="20" x2="118" y2="100" stroke="#888888" stroke-width="1.5" opacity="0.3"/>
  <text x="134" y="72" font-size="46" font-weight="700" letter-spacing="-1.5" fill="#3a3a3a" font-family="'Inter','Helvetica Neue',Arial,sans-serif">Loom<tspan fill="#3a3a3a">AI</tspan></text>
  <text x="136" y="91" font-size="9.5" letter-spacing="3" fill="#777777" font-family="'Inter','Helvetica Neue',Arial,sans-serif">WEAVE · BUILD · DISCOVER</text>
  <line x1="136" y1="98" x2="366" y2="98" stroke="#3a3a3a" stroke-width="0.5" opacity="0.1"/>
  <text x="136" y="111" font-size="9" letter-spacing="1.2" fill="#777777" font-family="'Inter','Helvetica Neue',Arial,sans-serif" opacity="0.7">FABRIC AI ASSISTANT</text>
</svg>
